<svg xmlns="http://www.w3.org/2000/svg" xml:space="preserve" width="2000" height="159" data-id="lg_ja8jCPHt9HY169qxyt" data-version="1" viewBox="0 0 2000 159"><g data-padding="20"><g transform="translate(10 2.84)scale(.96429)"><rect width="439.63" height="116.39" x="558.175" y="-58.001" fill="none" rx="0" ry="0" transform="matrix(.96 0 0 .96 348.67 102.86)"/><path fill="#ec4104" d="M925.7 63.766q0 3.68-2.52 6.68-2.52 3.01-6.16 5.38-3.63 2.38-7.61 4.12-3.97 1.75-6.88 2.91 0 2.03-.1 4.17-.09 2.13-.29 4.26 3.11-1.55 6.98-2.91 3.88-1.35 7.37-1.35 2.81 0 4.6 1.16 1.8 1.16 1.8 4.07 0 3.2-2.28 5.72t-5.48 4.46-6.69 3.29q-3.49 1.36-5.91 2.13 0 3.2-.1 6.35-.09 3.15-.29 6.25-.09 1.56-.34 3.88-.24 2.33-.96 4.51-.73 2.18-2.09 3.78t-3.49 1.6q-2.03 0-3.49-1.99-1.45-1.99-2.47-5.09t-1.65-6.93-.97-7.51q-.33-3.68-.38-6.78-.05-3.11-.05-4.75 0-1.26.05-3.73.05-2.48.09-5.48.05-3.01.2-6.3.14-3.3.34-6.25.19-2.96.53-5.24.34-2.27.82-3.34 1.07-2.13 5.09-4.22 4.02-2.08 8.97-3.68 4.94-1.6 9.64-2.62 4.7-1.01 7.22-1.01 1.17 0 2.28.14 1.11.15 2.08.63.97.49 1.55 1.36.59.87.59 2.33m46.71 56.6q0 2.42-1.98 4.55-1.99 2.14-5.14 3.88t-7.03 3.05-7.65 2.23q-3.78.92-7.13 1.41-3.34.48-5.28.48-1.84 0-3.93-.34-2.08-.34-3.44-1.5-.77-.58-1.35-2.62-.59-2.03-1.12-4.84t-.92-6.06-.63-6.35-.39-5.72q-.14-2.61-.14-4.07 0-2.42.14-5.86.15-3.44.44-7.37.29-3.92.77-7.99.49-4.07 1.12-7.71.63-3.63 1.55-6.54t1.99-4.56q1.84-2.61 4.65-2.61 1.94 0 3.29 1.31 1.36 1.3 2.19 3.39.82 2.08 1.26 4.65.43 2.57.63 5.09.19 2.52.19 4.65v3.39q0 7.56-.34 14.98-.34 7.41-.34 14.97v3.78q4.36-1.36 9.5-2.57t9.79-1.21q1.65 0 3.34.2 1.7.19 3.01.82 1.3.63 2.13 1.84.82 1.21.82 3.25"/><path fill="#ec4104" d="M1008.38 67.936q0 1.84-.82 3.3-.83 1.45-2.18 2.47-1.36 1.02-3.01 1.7-1.65.67-3.2.96-.19 10.96-.82 21.13-.63 10.18-1.99 21.04h.58q1.55 0 3.06.34 1.5.33 2.71 1.16 1.21.82 1.94 2.03.73 1.22.73 2.96 0 2.23-1.41 3.88-1.4 1.64-3.68 2.81-2.28 1.16-5.09 1.94-2.81.77-5.62 1.21-2.81.43-5.33.63-2.52.19-4.07.19-1.17 0-2.86-.1-1.7-.09-3.2-.58-1.5-.48-2.57-1.45t-1.07-2.62q0-2.03.83-3.63.82-1.6 2.18-2.86t3.05-2.04q1.7-.77 3.44-1.16.68-5.33 1.26-10.61.58-5.29.78-10.71.19-5.53.39-10.91l.38-10.8q-.68.09-1.26.14t-1.06.05q-1.36 0-2.91-.29t-2.91-1.02-2.28-1.79q-.92-1.07-.92-2.72 0-3.29 2.77-5.42 2.76-2.13 6.59-3.3 3.82-1.16 7.8-1.6 3.97-.43 6.4-.43 1.35 0 3.58.19t4.41.87 3.78 1.84q1.6 1.17 1.6 3.2m44.2 16.47q0 1.84-.44 3.88-.44 2.03-1.4 3.78-.97 1.74-2.52 2.9-1.56 1.17-3.78 1.17-3.4 0-5.04-1.21-1.65-1.22-2.33-3.06t-.73-3.92q-.05-2.09-.14-3.93-.1-1.84-.63-3.05-.54-1.21-2.28-1.21-1.94 0-3.39 1.4-1.46 1.41-2.52 3.64-1.07 2.23-1.8 5.04-.72 2.81-1.16 5.57t-.63 5.23q-.19 2.48-.19 4.03 0 2.03.14 4.84.15 2.81.92 5.38.78 2.57 2.33 4.36 1.55 1.8 4.46 1.8 1.94 0 3.78-.49 1.84-.48 3.68-1.11t3.73-1.12q1.89-.48 3.83-.48 2.23 0 3.68 1.79 1.46 1.79 1.46 4.02 0 3.1-1.94 5.77t-4.8 4.7q-2.86 2.04-6.2 3.2-3.35 1.16-6.06 1.16-6.98 0-11.82-3.15-4.85-3.15-7.85-8.14-3.01-4.99-4.32-11.15-1.31-6.15-1.31-12.26 0-4.07.78-8.91.78-4.85 2.33-9.74 1.55-4.9 3.92-9.45 2.38-4.56 5.57-8.05 3.2-3.49 7.22-5.62 4.03-2.13 8.87-2.13 4.75 0 7.95 2.37 3.2 2.38 5.14 6.01 1.94 3.64 2.71 7.95.78 4.31.78 8.19m52.53 45.08q0 2.71-1.36 4.41-1.36 1.69-4.17 1.69-2.23 0-4.12-1.35-1.89-1.36-3.48-3.35-1.6-1.98-2.81-4.21-1.22-2.23-1.99-3.88-2.04-4.07-4.02-8.14-1.99-4.07-3.93-8.24l-5.81 3.59q.09 2.81-.3 5.62-.38 2.81-.58 5.62-.19 1.94-.63 4.22-.43 2.27-1.4 4.26t-2.62 3.34q-1.65 1.36-4.07 1.36-2.23 0-3.68-.92-1.46-.92-2.38-2.37-.92-1.46-1.31-3.3-.38-1.84-.38-3.78v-.77q0-5.72.63-11.49t.82-11.58q.19-7.66.48-15.32.3-7.65.78-15.31.1-1.74.58-3.39.49-1.65 1.46-2.96.96-1.31 2.37-2.08 1.41-.78 3.34-.78 3.01 0 4.51 2.14 1.5 2.13 2.08 5.13.59 3.01.54 6.2-.05 3.2-.05 5.34 0 6.1-.29 12.21 2.81-2.33 5.47-5.33 2.67-3.01 4.71-6.11 1.26-1.84 2.9-5.09 1.65-3.24 3.59-6.3 1.94-3.05 4.26-5.33 2.33-2.28 4.95-2.28 2.81 0 4.12 1.6 1.3 1.6 1.3 4.22 0 3.88-1.21 7.95t-3.24 7.99q-2.04 3.93-4.61 7.47-2.57 3.53-5.18 6.15 2.71 4.56 5.13 9.16 2.43 4.6 4.85 9.26.87 1.55 1.7 3.39.82 1.84 1.5 3.78t1.11 3.88q.44 1.93.44 3.68m48.46-47.7q0 5.24-2.28 10.28t-6.06 9.06-8.62 6.59q-4.85 2.57-9.98 2.86-.1 1.74-.15 4.41-.05 2.66-.34 5.57t-.82 5.82q-.54 2.9-1.55 5.23-1.02 2.33-2.62 3.78t-3.93 1.45q-2.71 0-4.31-1.79t-2.42-4.31q-.83-2.52-1.12-5.28-.29-2.77-.38-4.7-.2-2.82-.25-5.53t-.05-5.52v-4.7q0-3.45.05-7.86t.15-9.2q.1-4.8.29-8.92t.44-7.03q.24-2.9.63-3.39.09-.1.58-.44.48-.33 1.06-.67t1.07-.63q.48-.29.68-.39 4.46-2.52 9.79-4.36t10.56-1.84q4.46 0 8.09 1.79 3.64 1.79 6.21 4.75 2.57 2.95 3.92 6.88 1.36 3.92 1.36 8.09m-16.77 2.23q0-1.94-.92-3.39t-3.05-1.45q-1.84 0-3.68.72-1.85.73-3.4 1.5.29 3.4.54 6.6.24 3.19.04 6.59 1.56-.78 3.4-1.8 1.84-1.01 3.39-2.27t2.62-2.86q1.06-1.6 1.06-3.64"/><path fill="#ec4104" d="M1189.43 67.936q0 1.84-.82 3.3-.83 1.45-2.18 2.47-1.36 1.02-3.01 1.7-1.65.67-3.2.96-.19 10.96-.82 21.13-.63 10.18-1.99 21.04h.58q1.55 0 3.06.34 1.5.33 2.71 1.16 1.21.82 1.94 2.03.73 1.22.73 2.96 0 2.23-1.41 3.88-1.4 1.64-3.68 2.81-2.28 1.16-5.09 1.94-2.81.77-5.62 1.21-2.81.43-5.33.63-2.52.19-4.07.19-1.17 0-2.86-.1-1.7-.09-3.2-.58-1.5-.48-2.57-1.45t-1.07-2.62q0-2.03.83-3.63.82-1.6 2.18-2.86t3.05-2.04q1.7-.77 3.44-1.16.68-5.33 1.26-10.61.58-5.29.78-10.71.19-5.53.39-10.91l.38-10.8q-.68.09-1.26.14t-1.06.05q-1.36 0-2.91-.29t-2.91-1.02q-1.35-.73-2.28-1.79-.92-1.07-.92-2.72 0-3.29 2.77-5.42 2.76-2.13 6.59-3.3 3.82-1.16 7.8-1.6 3.97-.43 6.4-.43 1.35 0 3.58.19t4.41.87 3.78 1.84q1.6 1.17 1.6 3.2m44.19 16.47q0 1.84-.44 3.88-.44 2.03-1.4 3.78-.97 1.74-2.52 2.9-1.56 1.17-3.78 1.17-3.4 0-5.04-1.21-1.65-1.22-2.33-3.06t-.73-3.92q-.05-2.09-.14-3.93-.1-1.84-.63-3.05-.54-1.21-2.28-1.21-1.94 0-3.39 1.4-1.46 1.41-2.52 3.64-1.07 2.23-1.8 5.04-.72 2.81-1.16 5.57-.43 2.76-.63 5.23-.19 2.48-.19 4.03 0 2.03.14 4.84.15 2.81.92 5.38.78 2.57 2.33 4.36 1.55 1.8 4.46 1.8 1.94 0 3.78-.49 1.84-.48 3.68-1.11t3.73-1.12q1.89-.48 3.83-.48 2.23 0 3.68 1.79 1.46 1.79 1.46 4.02 0 3.1-1.94 5.77t-4.8 4.7q-2.86 2.04-6.2 3.2t-6.06 1.16q-6.98 0-11.82-3.15-4.85-3.15-7.85-8.14-3.01-4.99-4.32-11.15-1.31-6.15-1.31-12.26 0-4.07.78-8.91.78-4.85 2.33-9.74 1.55-4.9 3.92-9.45 2.38-4.56 5.57-8.05 3.2-3.49 7.23-5.62 4.02-2.13 8.86-2.13 4.75 0 7.95 2.37 3.2 2.38 5.14 6.01 1.94 3.64 2.71 7.95.78 4.31.78 8.19m52.54 45.08q0 2.71-1.36 4.41-1.35 1.69-4.17 1.69-2.22 0-4.11-1.35-1.89-1.36-3.49-3.35-1.6-1.98-2.81-4.21-1.22-2.23-1.99-3.88-2.04-4.07-4.02-8.14-1.99-4.07-3.93-8.24l-5.81 3.59q.09 2.81-.3 5.62-.38 2.81-.58 5.62-.19 1.94-.63 4.22-.43 2.27-1.4 4.26t-2.62 3.34q-1.65 1.36-4.07 1.36-2.23 0-3.68-.92-1.46-.92-2.38-2.37-.92-1.46-1.31-3.3-.38-1.84-.38-3.78v-.77q0-5.72.63-11.49t.82-11.58q.19-7.66.48-15.32.3-7.65.78-15.31.1-1.74.58-3.39.49-1.65 1.46-2.96.96-1.31 2.37-2.08 1.41-.78 3.34-.78 3.01 0 4.51 2.14 1.5 2.13 2.08 5.13.59 3.01.54 6.2-.05 3.2-.05 5.34 0 6.1-.29 12.21 2.81-2.33 5.47-5.33 2.67-3.01 4.71-6.11 1.26-1.84 2.9-5.09 1.65-3.24 3.59-6.3 1.94-3.05 4.26-5.33 2.33-2.28 4.95-2.28 2.81 0 4.12 1.6 1.3 1.6 1.3 4.22 0 3.88-1.21 7.95t-3.24 7.99q-2.04 3.93-4.61 7.47-2.57 3.53-5.18 6.15 2.71 4.56 5.13 9.16 2.43 4.6 4.85 9.26.87 1.55 1.7 3.39.82 1.84 1.5 3.78t1.11 3.88q.44 1.93.44 3.68m-472.728 6.89c-37.05-.815-66.662-31.086-66.662-68.145S776.381.901 813.432.086c37.62 0 68.145 30.525 68.145 68.145 0 15.84-5.445 31.185-15.51 43.395a8.316 8.316 0 0 1-11.55 1.155 8.316 8.316 0 0 1-1.155-11.55 51.728 51.728 0 0 0-39.93-84.48c-28.38 0-51.645 23.1-51.645 51.645s23.1 51.645 51.645 51.645c4.62 0 8.25 3.63 8.25 8.25s-3.63 8.085-8.25 8.085"/><path fill="#ec4104" d="M834.882 32.591c-3.63 0-7.26 1.32-9.9 4.125a14.24 14.24 0 0 0 0 19.965c2.805 2.805 6.27 4.125 9.9 4.125s7.26-1.32 9.9-4.125c5.445-5.445 5.445-14.355 0-19.965a14.2 14.2 0 0 0-9.9-4.125m-42.9 43.065c-3.63 0-7.26 1.32-9.9 4.125a14.24 14.24 0 0 0 0 19.965c2.805 2.805 6.27 4.125 9.9 4.125s7.26-1.32 9.9-4.125c5.445-5.445 5.445-14.355 0-19.965a13.7 13.7 0 0 0-9.9-4.125m42.9 0c-3.63 0-7.26 1.32-9.9 4.125a14.24 14.24 0 0 0 0 19.965c2.805 2.805 6.27 4.125 9.9 4.125s7.26-1.32 9.9-4.125c5.445-5.445 5.445-14.355 0-19.965a13.53 13.53 0 0 0-9.9-4.125m-42.9-43.065c-3.63 0-7.26 1.32-9.9 4.125a14.24 14.24 0 0 0 0 19.965 14.025 14.025 0 0 0 19.8 0c5.445-5.445 5.445-14.355 0-19.965a14.52 14.52 0 0 0-9.9-4.125m21.45 29.37c-1.65 0-3.135.66-4.455 1.815a6.27 6.27 0 0 0 4.455 10.725c1.65 0 3.135-.66 4.455-1.815a6.27 6.27 0 0 0 0-8.91c-1.32-1.155-2.805-1.815-4.455-1.815m59.895 74.415h-60.555c-4.62 0-8.25-3.63-8.25-8.25s3.63-8.25 8.25-8.25h60.555c4.62 0 8.25 3.63 8.25 8.25s-3.795 8.25-8.25 8.25"/></g><path fill="transparent" stroke="transparent" d="M720 0h560v159H720z"/></g></svg>